<svg xmlns="http://www.w3.org/2000/svg" xmlns:xlink="http://www.w3.org/1999/xlink" version="1.1" id="Layer_1" x="0px" y="0px" enable-background="new 0 0 0 0" xml:space="preserve" viewBox="197.08 117.56 477.37 446.67">
<path fill="#000000" opacity="1.000000" stroke="none" d=" M397.321228,518.320435   C370.935760,546.549438 338.104095,560.020813 300.496429,563.127930   C275.755981,565.171997 251.163467,565.143311 227.474915,556.340515   C212.329147,550.712402 200.382278,541.600952 197.726242,524.396973   C195.586487,510.537292 198.695206,497.782349 208.315979,487.252563   C221.411331,472.919891 244.340897,475.681061 253.739319,492.615448   C256.969940,498.436462 259.926483,504.426575 262.704285,510.478943   C273.337555,533.646912 294.413452,535.989075 314.064301,528.341797   C327.345917,523.173157 335.607666,512.486206 342.196838,500.388885   C351.273926,483.723938 357.418365,465.879822 361.452057,447.462860   C371.146881,403.198608 380.356232,358.826477 389.526581,314.449310   C398.664185,270.230621 407.515961,225.952835 416.490295,181.700394   C416.755188,180.394272 416.978821,179.079819 417.239349,177.772751   C417.903564,174.440460 416.288025,173.417923 413.323578,174.112900   C409.108948,175.100998 404.867157,176.051056 400.753296,177.378098   C379.853394,184.120056 360.583496,193.466187 346.357849,211.087250   C335.596771,224.416840 330.517609,239.760223 328.976868,256.593414   C328.340454,263.546143 327.437592,270.519135 326.004486,277.346161   C321.204498,300.212646 308.630066,309.574463 285.459473,307.948364   C270.114258,306.871460 260.679688,298.087311 258.118073,282.963196   C255.545395,267.774139 259.811737,253.779724 265.879456,240.359055   C278.859100,211.650574 301.488129,192.169983 328.495697,177.311661   C360.194580,159.872391 394.643036,151.210419 430.146088,145.937210   C435.849365,145.090103 441.572662,143.573380 446.952698,141.499725   C465.761993,134.249939 484.428955,126.630447 503.139984,119.126518   C506.605103,117.736877 509.907318,116.357010 513.402710,119.308296   C516.692017,122.085541 515.436401,125.341713 514.831787,128.542114   C512.510132,140.831299 512.495239,140.555145 524.962219,141.093307   C554.634949,142.374146 584.244385,144.483322 612.519531,154.637238   C636.524963,163.257874 656.626709,176.787918 667.033508,201.302399   C675.526306,221.308060 675.947937,242.243713 672.192200,263.197876   C665.382385,301.191742 642.577209,328.051544 610.769775,347.972107   C578.263245,368.330475 542.113892,378.423370 504.544647,383.944733   C492.033569,385.783417 479.404907,386.896088 466.798615,387.974030   C462.182404,388.368744 460.655518,390.869598 459.589752,394.782532   C452.081360,422.349792 442.459717,449.121857 428.884003,474.345428   C420.323547,490.250580 410.425018,505.225739 397.321228,518.320435  M542.431335,326.941833   C556.706299,315.446869 567.661072,301.474823 574.767151,284.470367   C581.973022,267.227051 583.393433,249.196686 581.614807,230.971024   C579.488953,209.186066 569.370239,191.546371 549.365234,181.845154   C538.452942,176.553360 526.119751,174.042755 514.259644,170.913345   C507.717987,169.187241 506.728699,170.264221 505.413849,176.750717   C493.697174,234.552444 482.003967,292.358948 470.331787,350.169678   C469.095093,356.294739 469.717621,356.935669 476.052216,355.817047   C500.234528,351.546539 522.472534,342.728546 542.431335,326.941833  z"/>
</svg>